<svg width="20" height="14" viewBox="0 0 20 14" fill="none" xmlns="http://www.w3.org/2000/svg">
<g opacity="0.5">
<path d="M19.6983 0.998291L13.6711 6.98664L19.6983 12.975C19.8073 12.7473 19.8734 12.4955 19.8734 12.2267V1.74661C19.8734 1.47773 19.8073 1.22602 19.6983 0.998291Z" fill="white"/>
<path d="M18.1266 0H1.74661C1.47773 0 1.22602 0.0661021 0.998291 0.175056L8.70165 7.83959C9.38277 8.52072 10.4904 8.52072 11.1715 7.83959L18.8749 0.175056C18.6472 0.0661021 18.3954 0 18.1266 0Z" fill="white"/>
<path d="M0.175056 0.998291C0.0661021 1.22602 0 1.47773 0 1.74661V12.2267C0 12.4955 0.0661021 12.7473 0.175056 12.975L6.20222 6.98664L0.175056 0.998291Z" fill="white"/>
<path d="M12.8477 7.81006L11.9948 8.66294C10.8599 9.79786 9.01321 9.79786 7.8783 8.66294L7.02546 7.81006L0.998291 13.7984C1.22602 13.9074 1.47773 13.9735 1.74661 13.9735H18.1266C18.3954 13.9735 18.6472 13.9074 18.8749 13.7984L12.8477 7.81006Z" fill="white"/>
</g>
</svg>
