<svg width="28" height="28" viewBox="0 0 28 28" fill="none" xmlns="http://www.w3.org/2000/svg">
<path d="M27.9294 8.16845C27.8643 6.6922 27.6256 5.67729 27.2835 4.79786C26.9307 3.86437 26.3878 3.02861 25.6766 2.33384C24.9817 1.62826 24.1402 1.08 23.2174 0.732718C22.3327 0.390741 21.3229 0.152014 19.8464 0.0869254C18.3588 0.016325 17.8866 0 14.1137 0C10.3408 0 9.8686 0.016325 8.38656 0.0814131C6.91003 0.146501 5.89493 0.38544 5.01554 0.727206C4.08166 1.08 3.24574 1.62275 2.55084 2.33384C1.84513 3.02861 1.29697 3.86988 0.94941 4.79256C0.607368 5.67729 0.368595 6.68669 0.303495 8.16294C0.232881 9.65021 0.216553 10.1224 0.216553 13.8945C0.216553 17.6666 0.232881 18.1388 0.297981 19.6206C0.363082 21.0968 0.602066 22.1117 0.944109 22.9911C1.29697 23.9246 1.84513 24.7604 2.55084 25.4552C3.24574 26.1607 4.08717 26.709 5.01003 27.0563C5.89493 27.3983 6.90452 27.637 8.38126 27.7021C9.86309 27.7674 10.3355 27.7835 14.1084 27.7835C17.8813 27.7835 18.3535 27.7674 19.8356 27.7021C21.3121 27.637 22.3272 27.3983 23.2066 27.0563C25.0741 26.3344 26.5507 24.8581 27.2727 22.9911C27.6145 22.1064 27.8535 21.0968 27.9186 19.6206C27.9837 18.1388 28 17.6666 28 13.8945C28 10.1224 27.9945 9.65021 27.9294 8.16845ZM25.427 19.512C25.3672 20.8689 25.1392 21.6016 24.9492 22.0901C24.4823 23.3005 23.5215 24.2611 22.3109 24.728C21.8223 24.9179 21.0841 25.1458 19.7323 25.2054C18.2666 25.2707 17.827 25.2868 14.1192 25.2868C10.4115 25.2868 9.96636 25.2707 8.50595 25.2054C7.1488 25.1458 6.41594 24.9179 5.92737 24.728C5.32493 24.5053 4.77656 24.1526 4.33146 23.6912C3.87003 23.2407 3.51717 22.6979 3.29451 22.0956C3.10451 21.6071 2.87655 20.8689 2.81697 19.5175C2.75166 18.0521 2.73554 17.6124 2.73554 13.9053C2.73554 10.1983 2.75166 9.75325 2.81697 8.29332C2.87655 6.93644 3.10451 6.20372 3.29451 5.71524C3.51717 5.1127 3.87003 4.56465 4.33697 4.11942C4.78737 3.65808 5.33023 3.30529 5.93289 3.08289C6.42146 2.89292 7.15983 2.66501 8.51146 2.60522C9.97717 2.54013 10.417 2.52381 14.1245 2.52381C17.8378 2.52381 18.2774 2.54013 19.7378 2.60522C21.0949 2.66501 21.8278 2.89292 22.3164 3.08289C22.9188 3.30529 23.4672 3.65808 23.9123 4.11942C24.3737 4.56995 24.7266 5.1127 24.9492 5.71524C25.1392 6.20372 25.3672 6.94174 25.427 8.29332C25.4921 9.75876 25.5084 10.1983 25.5084 13.9053C25.5084 17.6124 25.4921 18.0466 25.427 19.512Z" fill="white"/>
<path d="M14.1081 6.80396C10.1952 6.80396 7.02051 9.97848 7.02051 13.8916C7.02051 17.8047 10.1952 20.9792 14.1081 20.9792C18.0212 20.9792 21.1958 17.8047 21.1958 13.8916C21.1958 9.97848 18.0212 6.80396 14.1081 6.80396ZM14.1081 18.4891C11.5697 18.4891 9.51057 16.4303 9.51057 13.8916C9.51057 11.3529 11.5697 9.29401 14.1081 9.29401C16.6468 9.29401 18.7057 11.3529 18.7057 13.8916C18.7057 16.4303 16.6468 18.4891 14.1081 18.4891Z" fill="white"/>
<path d="M23.4638 6.80406C23.4638 7.74342 22.7022 8.50509 21.7627 8.50509C20.8234 8.50509 20.0618 7.74342 20.0618 6.80406C20.0618 5.86448 20.8234 5.10303 21.7627 5.10303C22.7022 5.10303 23.4638 5.86448 23.4638 6.80406Z" fill="white"/>
</svg>
