<svg width="14" height="20" viewBox="0 0 14 20" fill="none" xmlns="http://www.w3.org/2000/svg">
<g opacity="0.5">
<path d="M12.7163 3.40321C11.5102 1.32179 9.36788 0.0501685 6.9856 0.00157201C6.88391 -0.000524003 6.78155 -0.000524003 6.67982 0.00157201C4.29758 0.0501685 2.1553 1.32179 0.949161 3.40321C-0.283683 5.53074 -0.317414 8.08632 0.858916 10.2394L5.78699 19.2596C5.78921 19.2635 5.79142 19.2675 5.79371 19.2715C6.01053 19.6484 6.39895 19.8733 6.83279 19.8733C7.26658 19.8733 7.65501 19.6483 7.87179 19.2715C7.87408 19.2675 7.87629 19.2635 7.8785 19.2596L12.8066 10.2394C13.9828 8.08632 13.9491 5.53074 12.7163 3.40321ZM6.83271 9.00511C5.29171 9.00511 4.03802 7.75143 4.03802 6.21043C4.03802 4.66943 5.29171 3.41575 6.83271 3.41575C8.37371 3.41575 9.62739 4.66943 9.62739 6.21043C9.62739 7.75143 8.37374 9.00511 6.83271 9.00511Z" fill="white"/>
</g>
</svg>
