<svg width="20" height="20" viewBox="0 0 20 20" fill="none" xmlns="http://www.w3.org/2000/svg">
<g opacity="0.5">
<path d="M19.3734 14.6317L16.5911 11.8495C15.5975 10.8558 13.9082 11.2533 13.5108 12.545C13.2127 13.4394 12.219 13.9362 11.3247 13.7374C9.33738 13.2406 6.65449 10.6571 6.15765 8.57037C5.85955 7.67603 6.45575 6.68236 7.35005 6.3843C8.64182 5.98684 9.03929 4.2976 8.04562 3.30394L5.26336 0.521675C4.46842 -0.173891 3.27602 -0.173891 2.58046 0.521675L0.692493 2.40964C-1.19547 4.39697 0.891226 9.6634 5.56146 14.3336C10.2317 19.0039 15.4981 21.19 17.4854 19.2026L19.3734 17.3146C20.069 16.5197 20.069 15.3273 19.3734 14.6317Z" fill="white"/>
</g>
</svg>
