<svg width="58" height="42" viewBox="0 0 58 42" fill="none" xmlns="http://www.w3.org/2000/svg">
<g opacity="0.5">
<path d="M57.5205 22.7514H43.7134C43.9495 12.6958 46.8035 11.5543 50.3881 11.2285L51.7704 11.0573V9.15527e-05L50.1771 0.0854187C45.4963 0.348591 40.3212 1.19183 36.8686 5.4511C33.842 9.1849 32.5077 15.2849 32.5077 24.649V42.0007H57.5205V22.7514Z" fill="#98766C"/>
<path d="M25.6077 42.0007V22.7514H11.9849C12.2209 12.6958 14.9827 11.5543 18.5673 11.2285L19.8576 11.0573V9.15527e-05L18.3563 0.0854187C13.6754 0.348591 8.45406 1.19183 5.00143 5.4511C1.97517 9.1849 0.594868 15.2849 0.594868 24.649V42.0007H25.6077Z" fill="#98766C"/>
</g>
</svg>
